<?xml version="1.0" encoding="UTF-8"?>
<svg id="Layer_1" xmlns="http://www.w3.org/2000/svg" version="1.1" viewBox="0 0 720 599.2">
  <!-- Generator: Adobe Illustrator 30.0.0, SVG Export Plug-In . SVG Version: 2.1.1 Build 123)  -->
  <defs>
    <style>
      .st0 {
        fill: #231f20;
      }
    </style>
  </defs>
  <g>
    <path class="st0" d="M197.1,386.2v-34.3h-15.1v-11.8h45v11.8h-15.1v34.3h-14.8Z"/>
    <path class="st0" d="M233.7,386.2v-46.1h14.8v16.8h16.3v-16.8h14.8v46.1h-14.8v-17.5h-16.3v17.5h-14.8Z"/>
    <path class="st0" d="M289.7,386.2v-46.1h39.9v11.1h-25.1v6.4h21.4v10.6h-21.4v7h25.5v11.1h-40.3Z"/>
    <path class="st0" d="M337.9,386.2v-46.1h28.9c3.4,0,6.3.7,8.6,2.1,2.3,1.4,4,3.2,5.2,5.4,1.2,2.2,1.7,4.6,1.7,7.2s-.7,5.6-2.1,7.9c-1.4,2.3-3.3,4.1-5.6,5.5l9,18h-16.6l-7-15.5h-7.3v15.5h-14.8ZM352.7,360.5h10.4c1.2,0,2.1-.5,2.9-1.4s1.2-2.1,1.2-3.7-.2-1.8-.5-2.5c-.4-.7-.8-1.3-1.5-1.7-.6-.4-1.3-.6-2.1-.6h-10.4v9.8Z"/>
    <path class="st0" d="M385.7,386.2l16.8-46.1h17.2l16.8,46.1h-15.7l-1.9-6.5h-16.1l-1.9,6.5h-15.1ZM405.9,369.4h10l-2.2-7.4c-.2-.5-.4-1.2-.6-1.9-.2-.8-.4-1.6-.7-2.4-.2-.8-.4-1.7-.7-2.5-.2-.8-.4-1.5-.6-2.2h-.5c-.2.8-.4,1.7-.7,2.7-.3,1-.6,2.1-.9,3.2-.3,1.1-.6,2.1-.9,3.1l-2.2,7.4Z"/>
    <path class="st0" d="M442.1,386.2v-46.1h27.2c2.9,0,5.5.7,7.7,2,2.2,1.3,3.9,3.1,5.2,5.5,1.2,2.3,1.9,5,1.9,8.1s-.6,5.9-1.9,8.3c-1.3,2.3-3,4.2-5.2,5.5-2.2,1.3-4.7,1.9-7.6,1.9h-12.4v14.9h-14.8ZM456.9,360.5h7.4c1.6,0,2.7-.4,3.5-1.2.8-.8,1.2-2,1.2-3.6s-.2-2-.5-2.6c-.3-.7-.8-1.2-1.5-1.6-.7-.4-1.6-.5-2.6-.5h-7.4v9.5Z"/>
    <path class="st0" d="M500.9,386.2v-17.9l-18.3-28.2h17l8.8,15.3h.3l8.8-15.3h16.1l-18,28.2v17.9h-14.8Z"/>
  </g>
  <g>
    <path class="st0" d="M57.1,242c5.5,13.6,10.4,27.4,14.8,41.3,4.3,13.9,7.8,27.7,10.4,41.3h-22.2c-.4-2.4-.9-4.8-1.4-7.3-.5-2.5-1-4.9-1.6-7.4h-27.7c-.6,2.5-1.1,5-1.6,7.4s-1,4.9-1.4,7.3H4.9c2.6-13.6,6.1-27.4,10.5-41.3,4.4-13.9,9.3-27.7,14.7-41.3h26.9ZM53.2,293.6c-1.4-5.2-3-10.4-4.6-15.6-1.7-5.1-3.4-10.2-5.3-15.2-1.9,5-3.6,10.1-5.3,15.2-1.7,5.1-3.2,10.3-4.7,15.6h19.9Z"/>
    <path class="st0" d="M92.1,242c1.9,0,3.6-.2,5.2-.2,1.6,0,3.2-.1,4.7-.2,1.5,0,3.1,0,4.7,0s3.2,0,5,0c9,0,16.9.9,23.9,2.8,7,1.8,12.9,4.5,17.7,8,4.8,3.5,8.5,7.7,11,12.7,2.5,5,3.8,10.7,3.8,17s-1.3,12.8-3.9,18.2c-2.6,5.3-6.4,9.8-11.2,13.5-4.9,3.7-10.8,6.5-17.8,8.5-7,1.9-14.8,2.9-23.6,2.9s-3.4,0-5,0c-1.5,0-3.1,0-4.6,0-1.5,0-3.1,0-4.7-.1-1.6,0-3.3-.1-5.2-.2v-82.6ZM113.6,307.4h2.9c4.5,0,8.6-.6,12.2-1.7,3.6-1.1,6.7-2.7,9.3-4.8,2.5-2.1,4.5-4.7,5.9-7.7,1.4-3.1,2-6.6,2-10.5s-.7-7-2-10-3.2-5.4-5.7-7.4c-2.5-2-5.6-3.5-9.3-4.6-3.7-1-7.9-1.6-12.6-1.6h-2.8v48.2Z"/>
    <path class="st0" d="M248.5,242c-2.5,13.6-5.9,27.4-10.2,41.3-4.3,13.9-9.1,27.7-14.6,41.3h-26.5c-5.4-13.6-10.3-27.4-14.6-41.3-4.3-13.9-7.7-27.7-10.2-41.3h22.2c.9,5,1.9,10,3.1,15.2,1.2,5.2,2.4,10.3,3.8,15.5,1.4,5.2,2.9,10.4,4.4,15.6,1.6,5.2,3.2,10.3,5,15.3,1.7-5,3.3-10.1,4.9-15.3,1.6-5.2,3-10.4,4.4-15.6,1.4-5.2,2.7-10.4,3.8-15.5,1.2-5.2,2.2-10.2,3-15.2h21.5Z"/>
    <path class="st0" d="M404.4,324.6h-26.3l-28.1-45.2c-1.1-1.9-2.2-3.8-3.1-5.6-.9-1.8-1.7-3.7-2.5-5.5.2,1.9.3,3.7.4,5.6.1,1.8.2,3.7.2,5.6v45.2h-19.8v-82.6h26.3l28.1,45.2c1.2,1.9,2.2,3.7,3.1,5.5.9,1.8,1.7,3.6,2.4,5.5-.2-1.8-.3-3.7-.4-5.5-.1-1.9-.2-3.7-.2-5.5v-45.2h19.8v82.6Z"/>
    <path class="st0" d="M481.4,259.3h-22.5v65.3h-21.5v-65.3h-24l6.7-17.3h61.2v17.3Z"/>
    <path class="st0" d="M561.1,293.7c0,5.1-.8,9.6-2.5,13.6-1.6,4-4,7.4-7.1,10.1-3.1,2.8-6.8,4.9-11.3,6.3-4.4,1.5-9.5,2.2-15.1,2.2s-10.2-.7-14.5-2.1c-4.3-1.4-7.9-3.4-10.9-6.1-3-2.7-5.2-6-6.8-9.9-1.6-3.9-2.4-8.3-2.4-13.3v-52.6h21.5v51.9c0,2.6.4,4.7,1.1,6.6.7,1.8,1.7,3.3,3,4.5s2.7,2,4.5,2.5c1.7.5,3.6.8,5.6.8s3.8-.3,5.5-.8c1.7-.5,3.2-1.3,4.5-2.5,1.3-1.1,2.2-2.5,3-4.2.7-1.7,1.1-3.7,1.1-6v-52.7h20.9v51.7Z"/>
    <path class="st0" d="M575.7,242c3.5-.2,6.9-.3,10.3-.5,3.4-.1,6.6-.2,9.7-.2,7.1,0,13.4.6,18.9,1.9,5.5,1.3,10.1,3.1,13.9,5.5,3.8,2.4,6.7,5.3,8.6,8.8,2,3.4,3,7.3,3,11.6s-.3,4.9-1,7.1c-.6,2.2-1.6,4.2-2.8,6.1-1.3,1.9-2.8,3.6-4.6,5.1-1.8,1.6-3.9,3-6.3,4.2,2.9,4.9,5.7,10.1,8.5,15.6,2.8,5.5,5.6,11.4,8.3,17.4h-23.6c-1.9-4.4-4.1-8.8-6.4-13.4-2.4-4.6-4.8-9.1-7.5-13.6-1.2.2-2.4.3-3.6.3-1.2,0-2.5.1-3.9.1v26.5h-21.5v-82.6ZM597.3,282h2.7c2.9,0,5.5-.3,7.7-.8,2.3-.5,4.1-1.3,5.6-2.4,1.5-1,2.7-2.3,3.4-3.8.8-1.5,1.2-3.1,1.2-5s-.4-3.4-1.2-4.8-2-2.7-3.5-3.7c-1.5-1-3.4-1.8-5.7-2.3-2.3-.5-4.9-.8-7.8-.8h-2.6v23.7Z"/>
    <path class="st0" d="M315.3,259h-34.4v15.5h29.5v17h-29.5v16.2h34.4l-2.6,17h-53.3v-82.6h52.1l3.8,17Z"/>
    <path class="st0" d="M710.8,259h-34.4v15.5h29.5v17h-29.5v16.2h34.4l-2.6,17h-53.3v-82.6h52.1l3.8,17Z"/>
  </g>
  <g>
    <path class="st0" d="M413.5,168l-43.3-10-11-44.3h0s0,0,0,0l-.7,2.9-9.3,40.5-44.3,11h0,0s0,0,0,0h0s43.3,10,43.3,10h0s11,44.2,11,44.2h0s0,.2,0,.2l8.4-36.4,1.6-6.9,44.3-11ZM368.9,178.3h-.3c0,0-9.5-10.3-9.5-10.3h51.4s-41.6,10.3-41.6,10.3ZM307.8,167.9l41.5-10.3h.3c0,0,9.5,10.3,9.5,10.3h-51.3ZM359.1,219.2l-10.3-41.6v-.2c0,0,10.3-9.4,10.3-9.4h0v-51.4s10.3,41.6,10.3,41.6v.4c0,0-10.3,9.4-10.3,9.4h0s0,0,0,0h0s0,0,0,0v51.1h0Z"/>
    <polygon class="st0" points="370.8 157.2 375.9 158.2 386.1 141 370.8 157.2"/>
    <polygon class="st0" points="348.1 156.2 342.9 157.3 332.8 140.1 348.1 156.2"/>
    <polygon class="st0" points="347.4 178.7 342.2 177.7 332.1 194.9 347.4 178.7"/>
    <polygon class="st0" points="370 179.7 375.2 178.7 385.3 195.9 370 179.7"/>
    <g>
      <path class="st0" d="M365.5,128.5c16.6,3,29.8,16.3,32.4,33.1l2.9.7c-2.5-18.9-17.2-33.8-36-36.6l.7,2.9Z"/>
      <path class="st0" d="M319.1,161.6c2.7-17.2,16.5-30.8,33.8-33.3l.7-2.8c-19.4,2.3-34.8,17.5-37.3,36.8l2.9-.7Z"/>
      <path class="st0" d="M352.5,207.3c-17.2-2.6-30.8-16.1-33.5-33.2l-2.9-.7c2.5,19.2,17.8,34.4,37,36.7l-.7-2.9Z"/>
      <path class="st0" d="M397.8,174.6c-2.9,16.6-15.9,29.6-32.5,32.5l-.7,2.9c18.6-2.7,33.4-17.5,36.1-36.1l-2.9.7Z"/>
    </g>
  </g>
  <polygon class="st0" points="167.7 359.7 10.3 359.7 5.1 350.9 162.5 350.9 167.7 359.7"/>
  <polygon class="st0" points="550.3 350.9 707.7 350.9 704.2 359.7 546.8 359.7 550.3 350.9"/>
  <g>
    <path class="st0" d="M138.4,440.2l8.6-21.1,9.4,3.8-1.1,8.2c0,.3,0,.8-.2,1.5,0,.7-.2,1.4-.3,2.2-.1.8-.2,1.5-.3,2.2h.2c.3-.3.6-.8,1-1.4.4-.6.8-1.1,1.3-1.7.4-.6.8-1.1,1.2-1.6l4.9-6.6,9.1,3.7-8.6,21.1-6.5-2.6,3.1-7.6c.3-.8.7-1.7,1-2.5.4-.9.7-1.7,1-2.5.3-.8.6-1.4.8-1.9h-.2c-.2.3-.5.7-.8,1.2-.3.5-.7,1-1,1.5-.3.5-.7.9-.9,1.3l-6.8,8.9-5.1-2.1,1.3-11.1c0-.4.1-1,.2-1.6,0-.6.2-1.2.3-1.8s.2-1.1.3-1.5h-.2c-.2.4-.4,1.1-.7,1.9-.3.8-.6,1.6-1,2.5-.3.9-.7,1.7-1,2.5l-3.1,7.6-6-2.4Z"/>
    <path class="st0" d="M180.1,456.1c-2.5-.8-4.4-1.8-5.9-3.2-1.5-1.4-2.4-3.1-2.8-5-.4-2-.2-4.2.6-6.6.8-2.5,1.9-4.4,3.3-5.8,1.4-1.4,3.2-2.2,5.2-2.5,2-.3,4.2,0,6.7.7,2.5.8,4.5,1.9,5.9,3.2,1.5,1.4,2.4,3.1,2.8,5,.4,2,.2,4.2-.6,6.6-.8,2.5-1.9,4.4-3.3,5.8-1.4,1.4-3.2,2.2-5.2,2.5-2,.3-4.3,0-6.7-.7ZM181.7,450.9c.8.2,1.5.3,2.1.3.7,0,1.2-.3,1.8-.6.5-.3,1-.8,1.4-1.3.4-.6.7-1.2.9-1.9l.6-2c.2-.7.3-1.4.4-2.1,0-.7-.1-1.3-.4-1.9-.3-.6-.6-1.1-1.1-1.5s-1.1-.8-1.9-1-1.5-.3-2.1-.3-1.2.3-1.8.6c-.5.3-1,.8-1.4,1.3-.4.6-.7,1.2-.9,1.9l-.6,2c-.2.7-.3,1.4-.4,2.1,0,.7.1,1.3.4,1.9.2.6.6,1.1,1.1,1.5s1.1.8,1.9,1Z"/>
    <path class="st0" d="M196.5,460.6l5.4-22.1,13.8,3.4c1.6.4,2.9,1.1,3.9,2,.9.9,1.6,2,1.8,3.2.3,1.2.3,2.4,0,3.7-.3,1.4-1,2.6-1.9,3.5-.9.9-2.1,1.6-3.3,2l2.2,9.7-8-2-1.5-8.2-3.5-.9-1.8,7.4-7.1-1.7ZM206.7,450.1l5,1.2c.6.1,1.1,0,1.6-.3.5-.3.8-.9,1-1.6.1-.4.1-.9,0-1.3,0-.4-.3-.7-.5-1-.2-.3-.6-.5-1-.6l-5-1.2-1.2,4.7Z"/>
    <path class="st0" d="M222.3,466.8l4.3-22.3,19.3,3.7-1,5.4-12.1-2.4-.6,3.1,10.4,2-1,5.1-10.4-2-.7,3.4,12.4,2.4-1,5.4-19.5-3.8Z"/>
    <path class="st0" d="M257.5,473l2.3-16.8-7.4-1,.8-5.8,22,3.1-.8,5.8-7.4-1-2.3,16.8-7.2-1Z"/>
    <path class="st0" d="M275.2,475.4l2.2-22.6,7.3.7-.8,8.3,8,.8.8-8.3,7.3.7-2.2,22.6-7.3-.7.8-8.6-8-.8-.8,8.6-7.3-.7Z"/>
    <path class="st0" d="M300.3,477.8l9.5-22.2,8.5.5,7,23.2-7.7-.4-.8-3.3-7.9-.4-1.1,3.1-7.5-.4ZM310.6,470l4.9.3-.9-3.7c0-.3-.2-.6-.2-1,0-.4-.2-.8-.3-1.2,0-.4-.2-.8-.3-1.3,0-.4-.2-.8-.2-1.1h-.3c-.1.4-.3.8-.4,1.3-.2.5-.3,1-.5,1.5-.2.5-.4,1-.5,1.5l-1.3,3.6Z"/>
    <path class="st0" d="M327.8,479.2l.4-22.7h6.2c0,0,6.9,8.4,6.9,8.4.2.2.5.5.8,1,.3.4.7.9,1,1.3.3.4.6.8.8,1.1h.2c0-.7,0-1.3,0-1.9,0-.6,0-1.1,0-1.4v-8.2c.1,0,6.8.1,6.8.1l-.4,22.7h-6.2c0,0-7.8-9.3-7.8-9.3-.4-.4-.7-.9-.9-1.2-.3-.4-.5-.7-.7-1.1h-.2c0,.5,0,.9,0,1.3,0,.4,0,.7,0,.9v9.1c-.1,0-6.8-.1-6.8-.1Z"/>
    <path class="st0" d="M369,479.6c-2,0-3.7-.2-5.1-.7-1.4-.5-2.5-1.4-3.3-2.6-.8-1.2-1.2-2.8-1.3-4.7v-.3s6.8-.2,6.8-.2v.3c0,1.1.3,1.8.7,2.2.4.4,1,.6,1.8.6.8,0,1.3-.3,1.7-.7.4-.4.6-1.2.5-2.2l-.4-14.8,7.3-.2.4,14.8c0,1.9-.3,3.5-1,4.8-.7,1.2-1.8,2.2-3.2,2.8-1.4.6-3.1.9-5,1Z"/>
    <path class="st0" d="M394.4,478.4c-2.4.2-4.4,0-6.2-.7-1.7-.6-3.1-1.6-4.1-2.9-1-1.4-1.6-3.1-1.7-5.2l-.9-13.6,7.3-.5.9,13.5c0,1.2.5,2.2,1.2,2.9.7.7,1.7,1.1,3.1,1,1.3,0,2.3-.5,2.9-1.4.6-.8.9-1.9.8-3.1l-.9-13.5,7.3-.5.9,13.6c.1,2.1-.2,3.9-1,5.3-.8,1.5-2,2.6-3.7,3.4-1.6.8-3.6,1.3-6,1.5Z"/>
    <path class="st0" d="M420.6,476.2c-1.6.2-3,.2-4.4.1-1.4,0-2.6-.4-3.7-.8-1.1-.5-2-1.1-2.6-2.1-.7-.9-1.1-2.2-1.3-3.7,0,0,0-.1,0-.2,0,0,0-.2,0-.2l6.9-.7c0,0,0,.2,0,.2,0,0,0,.1,0,.2,0,.7.3,1.1.6,1.5.3.3.8.5,1.4.6s1.2,0,1.9,0c.3,0,.5,0,.8-.1.3,0,.6-.1.8-.2.3,0,.5-.2.7-.3.2-.1.4-.3.5-.5.1-.2.2-.4.1-.7,0-.4-.3-.7-.7-.9-.4-.2-.9-.4-1.6-.5-.7-.1-1.4-.2-2.2-.3s-1.6-.2-2.5-.3c-.9-.1-1.7-.3-2.5-.6-.8-.2-1.6-.6-2.3-1-.7-.4-1.3-1-1.7-1.8s-.7-1.7-.8-2.8c-.1-1.3,0-2.5.5-3.4.5-1,1.1-1.8,2-2.5.9-.7,1.9-1.2,3.1-1.6,1.2-.4,2.5-.7,3.8-.8,1.4-.1,2.6-.1,3.9,0,1.2.2,2.3.5,3.3.9,1,.5,1.8,1.1,2.4,1.9.6.8,1,1.8,1.1,3v.4s-6.8.7-6.8.7h0c0-.5-.2-.9-.4-1.2-.2-.3-.6-.6-1-.8-.4-.2-1-.2-1.7-.2-.7,0-1.2.2-1.6.4-.4.2-.8.4-.9.6-.2.3-.3.5-.3.8,0,.4.3.7.7,1,.4.2.9.4,1.6.5.7.1,1.4.2,2.2.3.8,0,1.6.2,2.5.3.9,0,1.7.3,2.5.5.8.2,1.6.6,2.3,1,.7.4,1.3,1,1.7,1.7.4.7.7,1.6.8,2.6.2,1.9,0,3.4-.8,4.7-.7,1.3-1.8,2.2-3.3,2.9-1.4.7-3.1,1.1-5,1.3Z"/>
    <path class="st0" d="M439.6,473.6l-2.4-16.8-7.4,1-.8-5.8,22-3.1.8,5.8-7.4,1,2.4,16.8-7.2,1Z"/>
    <path class="st0" d="M461,470.4l3.8-23.9,8.3-1.6,12.4,20.8-7.6,1.5-1.5-3-7.8,1.5-.3,3.3-7.3,1.4ZM469.2,460.4l4.9-.9-1.8-3.4c-.1-.2-.3-.5-.5-.9-.2-.3-.4-.7-.5-1.1-.2-.4-.4-.8-.6-1.2-.2-.4-.4-.7-.5-1h-.3c0,.5,0,.9,0,1.4,0,.5,0,1.1-.1,1.6s-.1,1.1-.2,1.6l-.4,3.8Z"/>
    <path class="st0" d="M500.1,462.2l-4.1-16.4-7.2,1.8-1.4-5.6,21.5-5.4,1.4,5.6-7.2,1.8,4.1,16.4-7.1,1.8Z"/>
    <path class="st0" d="M518.3,457.5l-6.7-21.7,13.6-4.2c1.6-.5,3.1-.6,4.4-.3,1.3.3,2.4.9,3.2,1.8.9.9,1.5,1.9,1.9,3.2.4,1.4.5,2.7.2,4-.3,1.3-.9,2.4-1.9,3.4l6.9,7.2-7.8,2.4-5.6-6.3-3.4,1.1,2.2,7.3-7,2.1ZM521.6,443.3l4.9-1.5c.5-.2.9-.5,1.2-1.1.2-.5.3-1.2,0-1.9-.1-.4-.3-.8-.6-1.1s-.6-.5-.9-.6c-.4-.1-.7-.1-1.1,0l-4.9,1.5,1.4,4.6Z"/>
    <path class="st0" d="M543.5,449.5l-7.6-21.4,6.9-2.5,7.6,21.4-6.9,2.5Z"/>
    <path class="st0" d="M555.6,445.2l-8.7-21,12.4-5.1c1.3-.5,2.6-.7,3.9-.5,1.3.2,2.4.7,3.4,1.5,1,.8,1.8,1.9,2.4,3.3.6,1.4.8,2.8.7,4.1-.1,1.3-.6,2.5-1.4,3.5-.8,1-1.8,1.8-3.1,2.3l-5.7,2.3,2.8,6.8-6.8,2.8ZM557.5,430.7l3.4-1.4c.7-.3,1.2-.7,1.4-1.2.2-.5.2-1.1-.1-1.8-.2-.5-.4-.9-.7-1.1-.3-.3-.6-.4-1-.4-.4,0-.8,0-1.3.3l-3.4,1.4,1.8,4.3Z"/>
  </g>
  <g>
    <path class="st0" d="M200.9,186.9v-21h16.7v3.7h-12.2v4.7h10.8v3.7h-10.8v5.1h12.3v3.8h-16.9Z"/>
    <path class="st0" d="M229.9,187.2c-1.2,0-2.4-.1-3.5-.4s-2.1-.6-2.9-1.2c-.8-.5-1.5-1.2-2-2-.5-.8-.7-1.8-.7-3v-.3c0-.1,0-.2,0-.3h4.5c0,0,0,.1,0,.2v.3c0,.7.2,1.2.5,1.6.4.4.9.8,1.6,1,.7.2,1.5.3,2.4.3s1.1,0,1.6-.1c.5,0,.9-.2,1.2-.3.4-.1.7-.3.9-.5.2-.2.4-.4.5-.6.1-.2.2-.5.2-.8,0-.6-.2-1-.5-1.3-.4-.3-.8-.6-1.5-.9-.6-.2-1.3-.5-2.1-.7-.8-.2-1.6-.4-2.4-.6-.8-.2-1.6-.5-2.4-.8-.8-.3-1.5-.7-2.1-1.1s-1.1-1-1.5-1.7c-.4-.7-.5-1.5-.5-2.5s.2-1.9.7-2.7c.4-.8,1.1-1.4,1.8-1.9.8-.5,1.7-.9,2.8-1.1s2.2-.4,3.4-.4,2.2.1,3.2.4,1.9.6,2.7,1.1c.8.5,1.4,1.2,1.8,1.9.4.8.7,1.7.7,2.8v.4h-4.4v-.2c0-.5-.2-1-.5-1.4-.3-.4-.8-.7-1.4-.9-.6-.2-1.3-.3-2.1-.3s-1.6,0-2.2.2-1.1.4-1.4.7c-.3.3-.5.7-.5,1.1s.2.9.5,1.2c.4.3.8.6,1.5.8.6.2,1.3.4,2.1.6.8.2,1.6.4,2.4.6.8.2,1.6.5,2.4.8.8.3,1.5.7,2.1,1.1.6.5,1.1,1,1.5,1.7.4.7.5,1.5.5,2.4,0,1.6-.4,2.9-1.2,3.9-.8,1-1.8,1.7-3.2,2.1-1.3.4-2.9.7-4.6.7Z"/>
    <path class="st0" d="M247.6,186.9v-17.1h-6.7v-3.8h18.1v3.8h-6.8v17.1h-4.6Z"/>
    <path class="st0" d="M260.7,186.9v-4.4h4.4v4.4h-4.4Z"/>
  </g>
  <g>
    <path class="st0" d="M439.7,186.9v-1.1c0-.9.2-1.8.5-2.5.3-.8.8-1.4,1.3-2.1.6-.6,1.2-1.2,1.9-1.8.7-.6,1.4-1.1,2.1-1.6.8-.6,1.6-1.3,2.4-1.9.7-.6,1.3-1.3,1.8-2,.5-.7.7-1.5.7-2.3s-.1-.8-.3-1.2c-.2-.4-.5-.7-1-1-.4-.3-1-.4-1.8-.4s-1.4.1-1.9.4-.9.6-1.1,1.1c-.3.5-.4,1-.4,1.7v1.1h-4.1c0-.1,0-.2,0-.4s0-.4,0-.7c0-1.5.3-2.7,1-3.7.7-1,1.6-1.7,2.8-2.1,1.2-.5,2.5-.7,4-.7s2.5.2,3.4.6c.9.4,1.6.9,2.2,1.5.5.6.9,1.3,1.2,2,.2.7.4,1.4.4,2.1,0,1-.2,1.8-.5,2.6-.3.8-.8,1.5-1.4,2.2-.6.7-1.3,1.4-2.1,2s-1.7,1.3-2.6,1.9c-.5.3-.9.6-1.3.9-.4.3-.8.6-1.1.9s-.5.5-.7.8h9.9v3.8h-15.2Z"/>
    <path class="st0" d="M465.5,187.2c-1.3,0-2.4-.2-3.3-.6-1-.4-1.8-1-2.4-1.8-.6-.8-1.1-2-1.4-3.3s-.5-3.1-.5-5.1.2-3.7.5-5.1.8-2.5,1.4-3.3c.6-.9,1.4-1.5,2.4-1.8s2.1-.6,3.3-.6,2.4.2,3.3.6c.9.4,1.7,1,2.4,1.8.6.9,1.1,2,1.4,3.3s.5,3.1.5,5.1-.2,3.7-.5,5.1-.8,2.5-1.4,3.3c-.6.8-1.4,1.5-2.4,1.8-.9.4-2,.6-3.3.6ZM465.5,183.9c.9,0,1.6-.2,2-.7.5-.5.8-1.2,1-2.2s.3-2.2.3-3.7v-1.9c0-1.5,0-2.7-.3-3.7-.2-1-.5-1.7-1-2.2-.5-.5-1.2-.7-2-.7s-1.6.2-2.1.7c-.5.5-.8,1.2-1,2.2s-.3,2.2-.3,3.7v1.9c0,1.5,0,2.7.3,3.7s.5,1.7,1,2.2c.5.5,1.2.7,2.1.7Z"/>
    <path class="st0" d="M476.1,186.9v-1.1c0-.9.2-1.8.5-2.5.3-.8.8-1.4,1.3-2.1.6-.6,1.2-1.2,1.9-1.8.7-.6,1.4-1.1,2.1-1.6.8-.6,1.6-1.3,2.4-1.9.7-.6,1.3-1.3,1.8-2,.5-.7.7-1.5.7-2.3s-.1-.8-.3-1.2c-.2-.4-.5-.7-1-1-.4-.3-1-.4-1.8-.4s-1.4.1-1.9.4-.9.6-1.1,1.1c-.3.5-.4,1-.4,1.7v1.1h-4.1c0-.1,0-.2,0-.4s0-.4,0-.7c0-1.5.3-2.7,1-3.7.7-1,1.6-1.7,2.8-2.1,1.2-.5,2.5-.7,4-.7s2.5.2,3.4.6c.9.4,1.6.9,2.2,1.5.5.6.9,1.3,1.2,2,.2.7.4,1.4.4,2.1,0,1-.2,1.8-.5,2.6-.3.8-.8,1.5-1.4,2.2-.6.7-1.3,1.4-2.1,2s-1.7,1.3-2.6,1.9c-.5.3-.9.6-1.3.9-.4.3-.8.6-1.1.9s-.5.5-.7.8h9.9v3.8h-15.2Z"/>
    <path class="st0" d="M501.9,187.2c-1.6,0-3-.3-4.1-.8-1.2-.6-2.1-1.4-2.7-2.4s-.9-2.3-.9-3.7h4.2c0,.7.1,1.3.4,1.9.3.6.7,1,1.2,1.3.5.3,1.2.4,1.9.4s1.3-.2,1.8-.5c.5-.3.9-.7,1.2-1.3.3-.6.4-1.3.4-2.2s-.1-1.5-.4-2c-.3-.5-.7-.9-1.2-1.2-.5-.3-1.1-.4-1.8-.4s-1,0-1.4.3c-.4.2-.7.4-1,.6-.3.2-.5.5-.7.8l-3.8-.5.9-11.6h12.6v3.8h-9l-.3,4.7c.2-.2.5-.3.9-.5.4-.2.8-.4,1.4-.5.5-.2,1.2-.2,1.9-.2,1.2,0,2.3.3,3.3.8,1,.5,1.7,1.3,2.3,2.3.6,1,.9,2.3.9,3.8s-.3,2.8-.9,3.8c-.6,1.1-1.5,1.9-2.6,2.5-1.1.6-2.5.9-4,.9Z"/>
  </g>
  <path class="st0" d="M58.2,162.6L358.6,17.7l299.3,144.9v43.4h12.2v-47.2c0-2.3-1.3-4.5-3.4-5.5L361.3,5.4c-1.7-.8-3.6-.8-5.3,0L49.5,153.2c-2.1,1-3.5,3.2-3.5,5.5v47.2h12.2v-43.4Z"/>
  <path class="st0" d="M657.5,424.6l-300.4,144.9L57.8,424.6v-32.5h-12.2v36.3c0,2.3,1.3,4.5,3.4,5.5l305.4,147.8c.8.4,1.7.6,2.7.6s1.8-.2,2.6-.6l306.5-147.8c2.1-1,3.5-3.2,3.5-5.5v-36.3h-12.2v32.5Z"/>
</svg>